<?xml version="1.0" standalone="no"?>
<!DOCTYPE svg PUBLIC "-//W3C//DTD SVG 20010904//EN"
 "http://www.w3.org/TR/2001/REC-SVG-20010904/DTD/svg10.dtd">
<svg version="1.0" xmlns="http://www.w3.org/2000/svg"
 width="221.000000pt" height="221.000000pt" viewBox="0 0 221.000000 221.000000"
 preserveAspectRatio="xMidYMid meet">
<metadata>
Created by potrace 1.14, written by Peter Selinger 2001-2017
</metadata>
<g transform="translate(0.000000,221.000000) scale(0.100000,-0.100000)"
fill="#000000" stroke="none">
<path d="M870 2165 c-215 -48 -381 -138 -543 -294 -142 -137 -242 -312 -294
-512 -23 -91 -26 -124 -26 -259 0 -134 4 -168 26 -251 36 -138 79 -234 157
-351 142 -216 364 -373 625 -444 90 -24 117 -27 265 -27 147 0 176 3 263 26
53 14 132 41 175 59 l77 33 3 184 2 183 -40 -35 c-81 -69 -234 -135 -365 -158
-83 -14 -237 -7 -327 16 -88 23 -210 84 -293 148 -127 97 -231 252 -277 412
-30 105 -33 315 -5 415 73 267 277 484 532 566 97 32 283 43 390 25 163 -29
323 -117 440 -243 88 -94 137 -177 177 -298 30 -89 32 -105 32 -240 1 -164
-11 -226 -69 -347 -40 -86 -76 -139 -140 -211 l-47 -52 191 0 191 0 27 42 c40
64 91 191 117 293 94 363 -22 768 -296 1031 -139 134 -276 213 -463 270 -80
24 -109 27 -265 30 -127 3 -193 -1 -240 -11z"/>
<path d="M747 1113 c-3 -295 -4 -540 -1 -545 3 -4 98 -8 212 -8 298 0 386 23
493 130 98 98 141 225 141 420 1 296 -117 478 -339 525 -47 10 -135 15 -284
15 l-216 0 -6 -537z m423 265 c94 -49 137 -154 127 -309 -11 -176 -81 -259
-219 -259 l-38 0 0 295 0 295 43 0 c25 0 61 -10 87 -22z"/>
<path d="M1795 405 c-46 -16 -93 -66 -97 -104 -18 -149 141 -237 249 -137 30
27 36 41 40 83 12 118 -84 197 -192 158z"/>
</g>
</svg>
